name analog
datacolumns 19
datarows 43
range 0.668 0.6890000000000001
endheader
time	ground_force_vx	ground_force_vy	ground_force_vz	ground_force_px	ground_force_py	ground_force_pz	l_ground_force_vx	l_ground_force_vy	l_ground_force_vz	l_ground_force_px	l_ground_force_py	l_ground_force_pz	ground_torque_x	ground_torque_y	ground_torque_z	l_ground_torque_x	l_ground_torque_y	l_ground_torque_z
0.668	-0.0	-0.0	-0.0	2.8716964721679688	-4.8703155517578125	-606.5106811523438	-0.0	-0.0	-0.0	-0.0	-0.0	-0.0	-0.0	-0.0	-0.0	-0.0	-0.0	-0.0
0.6685	-0.0	-0.0	-0.0	2.814444065093994	-5.468592643737793	-607.9934692382812	-0.0	-0.0	-0.0	-0.0	-0.0	-0.0	-0.0	-0.0	-0.0	-0.0	-0.0	-0.0
0.669	-0.0	-0.0	-0.0	2.5065979957580566	-5.997824192047119	-607.5384521484375	-0.0	-0.0	-0.0	-0.0	-0.0	-0.0	-0.0	-0.0	-0.0	-0.0	-0.0	-0.0
0.6695	-0.0	-0.0	-0.0	1.8606077432632449	-5.896282196044922	-606.658203125	-0.0	-0.0	-0.0	-0.0	-0.0	-0.0	-0.0	-0.0	-0.0	-0.0	-0.0	-0.0
0.67	-0.0	-0.0	-0.0	1.5076186656951904	-6.1811347007751465	-606.8340454101562	-0.0	-0.0	-0.0	-0.0	-0.0	-0.0	-0.0	-0.0	-0.0	-0.0	-0.0	-0.0
0.6705	-0.0	-0.0	-0.0	1.1416634321212769	-6.733859539031982	-605.790771484375	-0.0	-0.0	-0.0	-0.0	-0.0	-0.0	-0.0	-0.0	-0.0	-0.0	-0.0	-0.0
0.671	-0.0	-0.0	-0.0	1.0305119752883911	-7.446975708007812	-607.469482421875	-0.0	-0.0	-0.0	-0.0	-0.0	-0.0	-0.0	-0.0	-0.0	-0.0	-0.0	-0.0
0.6715	-0.0	-0.0	-0.0	1.9533723592758176	-7.963294982910156	-605.8251953125	-0.0	-0.0	-0.0	-0.0	-0.0	-0.0	-0.0	-0.0	-0.0	-0.0	-0.0	-0.0
0.672	-0.0	-0.0	-0.0	2.162231922149658	-8.070981979370117	-605.9358520507812	-0.0	-0.0	-0.0	-0.0	-0.0	-0.0	-0.0	-0.0	-0.0	-0.0	-0.0	-0.0
0.6725	-0.0	-0.0	-0.0	2.5282256603240967	-8.29863452911377	-603.4644775390625	-0.0	-0.0	-0.0	-0.0	-0.0	-0.0	-0.0	-0.0	-0.0	-0.0	-0.0	-0.0
0.673	-0.0	-0.0	-0.0	2.6460986137390137	-7.83389139175415	-602.9218139648438	-0.0	-0.0	-0.0	-0.0	-0.0	-0.0	-0.0	-0.0	-0.0	-0.0	-0.0	-0.0
0.6735	-0.0	-0.0	-0.0	2.338917732238769	-7.397823333740234	-602.4061279296875	-0.0	-0.0	-0.0	-0.0	-0.0	-0.0	-0.0	-0.0	-0.0	-0.0	-0.0	-0.0
0.674	-0.0	-0.0	-0.0	1.9429346323013303	-6.526198387145996	-600.0917358398438	-0.0	-0.0	-0.0	-0.0	-0.0	-0.0	-0.0	-0.0	-0.0	-0.0	-0.0	-0.0
0.6745	-0.0	-0.0	-0.0	1.8536272048950195	-6.328258514404297	-599.5426025390625	-0.0	-0.0	-0.0	-0.0	-0.0	-0.0	-0.0	-0.0	-0.0	-0.0	-0.0	-0.0
0.675	-0.0	-0.0	-0.0	2.041771411895752	-6.209654808044434	-598.3239135742188	-0.0	-0.0	-0.0	-0.0	-0.0	-0.0	-0.0	-0.0	-0.0	-0.0	-0.0	-0.0
0.6755	-0.0	-0.0	-0.0	1.4861352443695068	-6.437666416168213	-597.9738159179688	-0.0	-0.0	-0.0	-0.0	-0.0	-0.0	-0.0	-0.0	-0.0	-0.0	-0.0	-0.0
0.676	-0.0	-0.0	-0.0	1.81498384475708	-5.961488246917725	-597.89306640625	-0.0	-0.0	-0.0	-0.0	-0.0	-0.0	-0.0	-0.0	-0.0	-0.0	-0.0	-0.0
0.6765	-0.0	-0.0	-0.0	1.734403133392334	-6.079446792602539	-598.8284301757812	-0.0	-0.0	-0.0	-0.0	-0.0	-0.0	-0.0	-0.0	-0.0	-0.0	-0.0	-0.0
0.677	-0.0	-0.0	-0.0	2.7261605262756348	-6.181409358978272	-601.1537475585938	-0.0	-0.0	-0.0	-0.0	-0.0	-0.0	-0.0	-0.0	-0.0	-0.0	-0.0	-0.0
0.6775	-0.0	-0.0	-0.0	4.292699813842773	-6.267815113067627	-602.0879516601562	-0.0	-0.0	-0.0	-0.0	-0.0	-0.0	-0.0	-0.0	-0.0	-0.0	-0.0	-0.0
0.678	-0.0	-0.0	-0.0	5.92714786529541	-5.657984733581543	-602.9205322265625	-0.0	-0.0	-0.0	-0.0	-0.0	-0.0	-0.0	-0.0	-0.0	-0.0	-0.0	-0.0
0.6785	-0.0	-0.0	-0.0	7.365273952484131	-4.734715461730957	-601.042724609375	-0.0	-0.0	-0.0	-0.0	-0.0	-0.0	-0.0	-0.0	-0.0	-0.0	-0.0	-0.0
0.679	-0.0	-0.0	-0.0	7.767560958862305	-3.815416574478149	-600.3811645507812	-0.0	-0.0	-0.0	-0.0	-0.0	-0.0	-0.0	-0.0	-0.0	-0.0	-0.0	-0.0
0.6795	-0.0	-0.0	-0.0	8.469021797180176	-2.4956512451171875	-598.4852905273438	-0.0	-0.0	-0.0	-0.0	-0.0	-0.0	-0.0	-0.0	-0.0	-0.0	-0.0	-0.0
0.68	-0.0	-0.0	-0.0	8.709152221679688	-1.4149497747421265	-595.615966796875	-0.0	-0.0	-0.0	-0.0	-0.0	-0.0	-0.0	-0.0	-0.0	-0.0	-0.0	-0.0
0.6805	-0.0	-0.0	-0.0	9.177390098571776	-0.0614885240793228	-593.3176879882812	-0.0	-0.0	-0.0	-0.0	-0.0	-0.0	-0.0	-0.0	-0.0	-0.0	-0.0	-0.0
0.681	-0.0	-0.0	-0.0	9.06536102294922	1.3531208038330078	-593.4063720703125	-0.0	-0.0	-0.0	-0.0	-0.0	-0.0	-0.0	-0.0	-0.0	-0.0	-0.0	-0.0
0.6815	-0.0	-0.0	-0.0	9.25053882598877	2.9024832248687744	-592.6531982421875	-0.0	-0.0	-0.0	-0.0	-0.0	-0.0	-0.0	-0.0	-0.0	-0.0	-0.0	-0.0
0.682	-0.0	-0.0	-0.0	9.087845802307127	4.313106060028076	-592.5899047851562	-0.0	-0.0	-0.0	-0.0	-0.0	-0.0	-0.0	-0.0	-0.0	-0.0	-0.0	-0.0
0.6825	-0.0	-0.0	-0.0	8.959805488586426	4.979610919952393	-594.1557006835938	-0.0	-0.0	-0.0	-0.0	-0.0	-0.0	-0.0	-0.0	-0.0	-0.0	-0.0	-0.0
0.683	-0.0	-0.0	-0.0	8.680253028869629	5.650727272033691	-596.5553588867188	-0.0	-0.0	-0.0	-0.0	-0.0	-0.0	-0.0	-0.0	-0.0	-0.0	-0.0	-0.0
0.6835	-0.0	-0.0	-0.0	8.692062377929688	5.998431205749512	-596.768310546875	-0.0	-0.0	-0.0	-0.0	-0.0	-0.0	-0.0	-0.0	-0.0	-0.0	-0.0	-0.0
0.684	-0.0	-0.0	-0.0	8.409856796264648	6.316234588623047	-601.5131225585938	-0.0	-0.0	-0.0	-0.0	-0.0	-0.0	-0.0	-0.0	-0.0	-0.0	-0.0	-0.0
0.6845	-0.0	-0.0	-0.0	8.118156433105469	6.263466835021973	-603.8816528320312	-0.0	-0.0	-0.0	-0.0	-0.0	-0.0	-0.0	-0.0	-0.0	-0.0	-0.0	-0.0
0.685	-0.0	-0.0	-0.0	7.58459997177124	5.779525279998779	-607.3724975585938	-0.0	-0.0	-0.0	-0.0	-0.0	-0.0	-0.0	-0.0	-0.0	-0.0	-0.0	-0.0
0.6855	-0.0	-0.0	-0.0	7.175252437591553	5.36020040512085	-610.4469604492188	-0.0	-0.0	-0.0	-0.0	-0.0	-0.0	-0.0	-0.0	-0.0	-0.0	-0.0	-0.0
0.686	-0.0	-0.0	-0.0	6.83167028427124	4.214132308959961	-614.8367309570312	-0.0	-0.0	-0.0	-0.0	-0.0	-0.0	-0.0	-0.0	-0.0	-0.0	-0.0	-0.0
0.6865	-0.0	-0.0	-0.0	6.078904151916504	3.3104028701782227	-618.2166137695312	-0.0	-0.0	-0.0	-0.0	-0.0	-0.0	-0.0	-0.0	-0.0	-0.0	-0.0	-0.0
0.687	-0.0	-0.0	-0.0	5.594759464263916	2.228227138519287	-620.8905029296875	-0.0	-0.0	-0.0	-0.0	-0.0	-0.0	-0.0	-0.0	-0.0	-0.0	-0.0	-0.0
0.6875	-0.0	-0.0	-0.0	5.123437881469727	1.1968597173690796	-622.5050659179688	-0.0	-0.0	-0.0	-0.0	-0.0	-0.0	-0.0	-0.0	-0.0	-0.0	-0.0	-0.0
0.6880000000000001	-0.0	-0.0	-0.0	4.090760231018066	0.6620222926139832	-624.9263305664062	-0.0	-0.0	-0.0	-0.0	-0.0	-0.0	-0.0	-0.0	-0.0	-0.0	-0.0	-0.0
0.6885	-0.0	-0.0	-0.0	4.346312999725342	0.051093690097332	-624.2151489257812	-0.0	-0.0	-0.0	-0.0	-0.0	-0.0	-0.0	-0.0	-0.0	-0.0	-0.0	-0.0
0.6890000000000001	-0.0	-0.0	-0.0	4.179747581481934	-0.4953787326812744	-624.0169067382812	-0.0	-0.0	-0.0	-0.0	-0.0	-0.0	-0.0	-0.0	-0.0	-0.0	-0.0	-0.0
